<?xml version="1.0" encoding="UTF-8" standalone="no"?>
<svg width="2132px" height="392px" viewBox="0 0 2132 392" version="1.1" xmlns="http://www.w3.org/2000/svg" xmlns:xlink="http://www.w3.org/1999/xlink">
    <!-- Generator: Sketch 41.2 (35397) - http://www.bohemiancoding.com/sketch -->
    <title>Group 2</title>
    <desc>Created with Sketch.</desc>
    <defs></defs>
    <g id="Page-1" stroke="none" stroke-width="1" fill="none" fill-rule="evenodd">
        <g id="Artboard-2" transform="translate(0.000000, -991.000000)">
            <g id="Group-2" transform="translate(-357.000000, 991.000000)">
                <g id="Group">
                    <path d="M318,391.461521 C318,391.461521 514.793332,0 728.149388,0 C941.505444,0 962.90483,263.70661 1376.85048,263.70661 C1790.79613,263.70661 1845.25055,20.7549555 2072.78136,20.7549555 C2300.31217,20.7549555 2454.66597,391.458385 2454.66597,391.458385 L318,391.461521 Z" id="pink" fill="#FFA0CD" opacity="0.8"></path>
                    <path d="M1198,391.461521 C1198,391.461521 1394.79333,118.275862 1608.14939,118.275862 C1821.50544,118.275862 1842.90483,302.306374 2256.85048,302.306374 C2670.79613,302.306374 2725.25055,132.759932 2952.78136,132.759932 C3180.31217,132.759932 3334.66597,391.459332 3334.66597,391.459332 L1198,391.461521 Z" id="purple" fill="#FFA0CD" opacity="0.397796175"></path>
                    <path d="M803,391.461521 C803,391.461521 999.793332,62 1213.14939,62 C1426.50544,62 1447.90483,283.940539 1861.85048,283.940539 C2275.79613,283.940539 2330.25055,79.4677684 2557.78136,79.4677684 C2785.31217,79.4677684 2939.66597,391.458881 2939.66597,391.458881 L803,391.461521 Z" id="orange" fill="#FFC898" opacity="0.8"></path>
                    <path d="M0,391.461521 C0,391.461521 208.766721,118.275862 435.103883,118.275862 C661.441045,118.275862 684.142422,302.306374 1123.27354,302.306374 C1562.40466,302.306374 1620.17222,132.759932 1861.54656,132.759932 C2102.92091,132.759932 2266.66597,391.459332 2266.66597,391.459332 L0,391.461521 Z" id="green" fill="#98FFD5" opacity="0.694717817"></path>
                </g>
            </g>
        </g>
    </g>
</svg>